<svg xmlns="http://www.w3.org/2000/svg" width="128" height="128"><path fill="#5d8b1c" fill-rule="evenodd" d="M96.003 29.994c-4.012 7.864-6.281 20.502-5.72 31.853.281 5.691.999 10.835 1.594 11.43 1.455 1.455 6.476-1.12 5.246-2.689-2.779-3.547-1.696-22.341 1.912-33.189 1.558-4.684 1.795-6.716 1.022-8.75C99.503 27.192 98.823 26 98.545 26c-.277 0-1.421 1.797-2.542 3.994m62.113 5.074c-3.618 7.502-14.561 20.19-20.669 23.965-3.092 1.911-4.717 4.967-2.641 4.967 2.588 0 16.698-12.995 21.173-19.5C159.163 39.871 164 30.545 164 29.033c0-.568-.562-1.022-1.25-1.008-.687.014-2.773 3.183-4.634 7.043M40 64.558c0 3.918 2.854 16.671 5.134 22.942 3.415 9.393 11.623 22 14.323 22 2.816 0 4.386-3.145 2.358-4.723-5.411-4.212-13.318-21.792-15.293-33.998-.355-2.194-1.498-4.349-2.784-5.25C41.497 63.96 40 63.571 40 64.558m75.477 27.468c-.92 1.016-1.341 2.385-.935 3.041 1.134 1.836 16.208 8.577 23.205 10.378 8.137 2.095 24.242 3.058 26.253 1.57 1.287-.952 1.139-1.393-1.04-3.101-1.875-1.47-4.52-2.099-10.101-2.404-10.231-.558-19.449-3.017-28.315-7.55-7.147-3.655-7.451-3.72-9.067-1.934m-21.616 36.889L91.5 130.83l2.5 2.693c9.345 10.068 30.005 20.084 45.389 22.006l5.819.727-1.233-2.378c-1.73-3.338-4.109-5.913-4.972-5.38-1.349.834-15.085-3.514-21.824-6.908C110.005 137.977 98 129.418 98 127.915c0-1.454-1.586-1.071-4.139 1"/><path fill="#6ca024" fill-rule="evenodd" d="M91.921 28.407c-7.504 5.1-12.865 14.942-12.899 23.683-.028 7.229 4.528 16.851 9.408 19.867 3.332 2.059 4.57 5.03 4.57 10.972C93 87.29 88.423 95.114 82.429 101c-3.081 3.025-7.77 8.737-10.421 12.693-4.576 6.829-4.853 7.06-5.48 4.561-.991-3.948-4.291-8.08-6.738-8.437C54.789 109.086 43.417 87.36 41.567 75c-1.535-10.252-1.562-10.315-3.543-8.521-4.076 3.688-6.241 18.725-3.848 26.714 2.425 8.095 11.992 16.086 21.123 17.645 8.263 1.411 10.249 10.804 5.443 25.736-5.042 15.668-8.293 39.853-5.765 42.898 1.774 2.138 5.75 1.907 6.988-.406.569-1.064 1.035-5.013 1.035-8.776 0-8.475 1.533-21.032 3.525-28.866 2.638-10.378 10.856-15.46 19.928-12.323 3.885 1.343 4.072 1.607 4.681 6.594 1.342 10.996 9.979 22.452 19.329 25.638 9.588 3.267 27.719 1.438 31.935-3.221 1.673-1.848 1.563-1.929-3.586-2.629-11.951-1.624-25.255-7.117-36.312-14.993-7.219-5.142-10.937-8.974-10.069-10.378.352-.569-1.191-1.969-3.429-3.111-4.189-2.137-10.878-2.81-14.982-1.507-2.221.705-2.153.414 1.43-6.127 10.349-18.887 23.269-28.405 34.466-25.39 3.052.822 4.084 1.606 4.084 3.101 0 5.493 9.319 16.486 16.528 19.498 9.142 3.82 29.872-.814 33.408-7.468.757-1.424-.303-1.622-9.291-1.732-5.991-.073-12.806-.826-16.645-1.839-9.083-2.396-21.094-8.075-23.633-11.173-1.695-2.069-3.334-2.733-7.979-3.234l-5.847-.63 4.98-3.575c2.738-1.967 10.742-7.557 17.785-12.422l12.805-8.847 6.033.246c11.129.455 20.24-5.986 23.493-16.607 1.798-5.869 2.01-16.218.394-19.237-1.127-2.106-1.347-1.898-4.081 3.884-3.887 8.219-7.672 13.534-14.086 19.784C142.201 59.243 136.155 64 134.806 64c-2.076 0-.451-3.056 2.641-4.967 5.531-3.419 16.776-16.166 20.312-23.026 1.792-3.477 3.091-6.49 2.886-6.696-1.001-1.001-16.031 4.827-19.466 7.547-5.273 4.177-8.429 11.617-8.429 19.873v6.28l-13.625 9.178c-7.494 5.047-16.034 10.943-18.978 13.102l-5.353 3.924.664-3.023c.929-4.232-.344-10.008-2.688-12.191-1.645-1.533-2.063-3.58-2.488-12.172-.56-11.333 1.712-23.977 5.721-31.835 2.42-4.744 1.24-5.203-4.082-1.587m6.75 9.968c-3.307 10.491-4.219 30.55-1.467 32.251 1.503.929 4.622-2.572 7.461-8.373 3.61-7.38 3.548-14.8-.196-23.142-1.508-3.361-3.048-6.111-3.423-6.111-.374 0-1.443 2.419-2.375 5.375M46.694 71.728c1.217 7.977 5.445 19.135 9.873 26.057 2.539 3.968 5.198 7.215 5.908 7.215 1.728 0 2.499-3.253 2.489-10.5-.012-9.163-3.621-15.585-12.464-22.181-6.424-4.791-6.447-4.794-5.806-.591m76.931 15.741c-6.41 2.285-6.248 2.987 1.571 6.818 8.46 4.146 16.34 6.307 26.554 7.28 8.741.834 9.035.165 2.713-6.156-8.557-8.558-20.49-11.631-30.838-7.942m-22.875 38.186c-1.513.263-2.75 1.085-2.75 1.827 0 1.868 11.125 10.052 19.179 14.108 6.97 3.51 20.491 7.732 21.925 6.846 1.199-.742-4.494-9.59-9.194-14.291-5.645-5.644-11.406-8.177-19.582-8.608-3.756-.198-8.065-.145-9.578.118"/></svg>
